<svg width="24" height="24" viewBox="0 0 24 24" fill="none" xmlns="http://www.w3.org/2000/svg">
<path d="M12 12C14.21 12 16 10.21 16 8C16 5.79 14.21 4 12 4C9.79 4 8 5.79 8 8C8 10.21 9.79 12 12 12ZM12 14C9.33 14 4 15.34 4 18V20H20V18C20 15.34 14.67 14 12 14ZM18.71 8.71L15.29 5.29C15.11 5.11 14.85 5 14.59 5C14.33 5 14.07 5.11 13.89 5.29L12.29 6.89C12.11 7.07 12 7.33 12 7.59C12 7.85 12.11 8.11 12.29 8.29L15.71 11.71C15.89 11.89 16.15 12 16.41 12C16.67 12 16.93 11.89 17.11 11.71L18.71 10.11C18.89 9.93 19 9.67 19 9.41C19 9.15 18.89 8.89 18.71 8.71Z" fill="currentColor"/>
</svg>
